# xmcd
#
# Track frame offsets:
#	150
#	10010
#	21871
#	31843
#	44008
#	55538
#	67980
#	81158
#	90776
#	99478
#	108493
#	116052
#	124552
#	136996
#	145280
#	155988
#	168718
#	179112
#	191130
#	201723
#
# Disc length: 2817 seconds
#
# Revision: 0
# Processed by: cddbd v1.5.2PL0 Copyright (c) Steve Scherf et al.
# Submitted via: audiograbber 1.83.01
#
DISCID=1e0aff14
DTITLE=ROCK N ROLL COWBOYS - CD8
DYEAR=2014
DGENRE=Country
TTITLE0=JOHNNY HORTON - GOT THE BULL BY THE HORNS
TTITLE1=JIM REEVES - MEXICAN JOE
TTITLE2=BOB LUMAN - TRY ME
TTITLE3=HANK SNOW - HONEYMOON ON A ROCKETSHIP
TTITLE4=MARVIN RAINWATER - DANCE ME DADDY
TTITLE5=SKEETS MCDONALD - DON´T LET THE STARS GET IN  YOUR EYES
TTITLE6=RED FOLEY - SALTY DOG RAG
TTITLE7=DON GIBSON - I AIN´T A-STUDYIN´YOU BABY
TTITLE8=BILL ;MACK - LONG LONG TRAIN
TTITLE9=SONNY JAMES - YOU GOT THAT TOUCH
TTITLE10=JERRY PITTS - KEEP OLD CENTRAL ROLLING
TTITLE11=RUSTY and DOUG KERSHAW - WHY DON´T YOU LOVE ME
TTITLE12=RED FOLEY and ROBERTA LEE - NIGHT TRAIN TO MEMPHIS
TTITLE13=GEORGE THUMPER JONES - HEARTBREAK HOTEL
TTITLE14=CLIFF SHEPHERD - RAILROAD CROSSING
TTITLE15=BILL FLAGG - I´M SO LONELY
TTITLE16=JOHNNY HORTON - BIG WHEELS ROLLIN´
TTITLE17=MARVIN RAINWATER - HARD LUCK BLUES
TTITLE18=DON GIBSON - DIDN´T WORK OUT - DID IT
TTITLE19=JOHNNY DUNCAN and HIS BLUE GRASS BOYS - ALL OFF THE MONKEYS AIN´T IN THE
TTITLE19=ZOO
EXTD=
EXTT0=
EXTT1=
EXTT2=
EXTT3=
EXTT4=
EXTT5=
EXTT6=
EXTT7=
EXTT8=
EXTT9=
EXTT10=
EXTT11=
EXTT12=
EXTT13=
EXTT14=
EXTT15=
EXTT16=
EXTT17=
EXTT18=
EXTT19=
PLAYORDER=
